# xmcd CD database file
#
# Track frame offsets:
#	150
#	17587
#	33309
#	56163
#	72204
#	93144
#
# Disc length: 1440 seconds
#
# Revision: 0
# Processed by: cddbd v1.5.2PL0 Copyright (c) Steve Scherf et al.
# Submitted via: CDex 1.70beta2
#
DISCID=43059e06
DTITLE=Yves Klein Blue - Draw Attention To Themselves
DYEAR=2008
DGENRE=New Age
TTITLE0=Blasphemy
TTITLE1=Not What I Want
TTITLE2=19
TTITLE3=Silence is Distance
TTITLE4=Polka
TTITLE5=(a bookend)
EXTD=YEAR: 2008
EXTT0=
EXTT1=
EXTT2=
EXTT3=
EXTT4=
EXTT5=
PLAYORDER=
